# xmcd CD database file
#
# Track frame offsets:
#	150
#	15436
#	30837
#	41513
#	65664
#	81226
#	93676
#	106707
#	119068
#	133312
#	140926
#	153025
#	167589
#	179295
#	189596
#	209912
#
# Disc length: 3006 seconds
#
# Revision: 0
# Processed by: cddbd v1.5.2PL0 Copyright (c) Steve Scherf et al.
# Submitted via: CDex 1.82
#
DISCID=e20bbc10
DTITLE=Ladies in Jazz - Ladies in Jazz - The Lady Is A Tramp
DYEAR=1900
DGENRE=Jazz
TTITLE0=Nina Simone - Love Me Or Leave Me
TTITLE1=Ella Fitzgerald - The Lady Is A Tramp
TTITLE2=June Richmond - Everybody's Doin' It
TTITLE3=Dinah Washington - Blue Gardenia
TTITLE4=Peggy Lee - Gee, Baby, Ain't I Good To You
TTITLE5=Pat Morrissey - Give Me The Simple Life
TTITLE6=Jo Stafford - A Sunday Kind Of Love
TTITLE7=Mildred Bailey - From The Land Of The Sky Blue Water
TTITLE8=Helen Merrill - Anything Goes
TTITLE9=Betty Carter - Thou Swell
TTITLE10=Carmen Mc Rae - Our Love Is Here To Stay
TTITLE11=Sarah Vaughan - It Might As Well Be Spring
TTITLE12=Jerry Southern - No Moon At All
TTITLE13=Ernestine Anderson - There's A Boat Dat's Leavin' Soon For New York
TTITLE14=Abbey Lincoln - Ain't Nobody's Business
TTITLE15=Billie Holiday - Let's Call The Whole Thing Off
EXTD=
EXTT0=
EXTT1=
EXTT2=
EXTT3=
EXTT4=
EXTT5=
EXTT6=
EXTT7=
EXTT8=
EXTT9=
EXTT10=
EXTT11=
EXTT12=
EXTT13=
EXTT14=
EXTT15=
PLAYORDER=
